<svg xmlns="http://www.w3.org/2000/svg" width="145" height="25" viewBox="0 0 145 25" fill="none"><path d="M14.5197 10.2986V7.62041H1.19923V10.508H10.2972L0.88208 21.3285V24.0067H14.6274V21.117H5.07762L14.5197 10.2986Z" fill="#6B28DA"></path><path d="M73.9093 7.08972C72.452 7.08972 71.1958 7.43174 70.1387 8.11165C69.2618 8.67755 68.5923 9.43831 68.1031 10.3732C67.7465 9.41758 67.1993 8.65061 66.4385 8.093C65.5223 7.42345 64.3822 7.08764 63.0183 7.08764C61.6543 7.08764 60.5101 7.40065 59.5109 8.02252C58.7004 8.5283 58.0806 9.21858 57.6329 10.0726L57.4836 7.61623H54.1711V24.0045H57.7303V15.5471C57.7303 14.4423 57.9065 13.497 58.2589 12.7093C58.6113 11.9237 59.1046 11.3122 59.7389 10.8769C60.3732 10.4416 61.1133 10.2239 61.959 10.2239C63.0639 10.2239 63.9096 10.5825 64.4962 11.2998C65.0829 12.017 65.3772 13.0679 65.3772 14.4547V24.0066H68.9364V15.5492C68.9364 14.4443 69.1126 13.4991 69.465 12.7114C69.8174 11.9258 70.3045 11.3143 70.9284 10.879C71.5503 10.4437 72.2965 10.226 73.1672 10.226C74.2471 10.226 75.0763 10.5846 75.6526 11.3018C76.2267 12.0191 76.5149 13.07 76.5149 14.4568V24.0087H80.074V14.0339C80.074 11.8263 79.533 10.1161 78.453 8.90557C77.3731 7.695 75.8557 7.08972 73.9072 7.08972H73.9093Z" fill="#6B28DA"></path><path d="M143.232 8.92424C142.162 7.70331 140.665 7.0918 138.738 7.0918C137.303 7.0918 136.053 7.43383 134.984 8.11374C134.225 8.59673 133.626 9.21652 133.17 9.95862V0.499996H129.611V24.0066H133.17V15.5492C133.17 14.4444 133.358 13.4991 133.734 12.7114C134.109 11.9258 134.633 11.3143 135.303 10.879C135.972 10.4437 136.754 10.226 137.647 10.226C138.823 10.226 139.72 10.5846 140.344 11.3019C140.966 12.0191 141.277 13.07 141.277 14.4568V24.0087H144.836V13.9635C144.836 11.8263 144.301 10.1452 143.232 8.92424Z" fill="#6B28DA"></path><path d="M87.5262 2.22674H83.967V7.61834H81.0774V10.508H83.967V18.6151C83.967 20.5428 84.4251 22.0042 85.3413 23.0034C86.2306 23.9714 87.5137 24.4606 89.1762 24.4896L93.8713 24.5V21.5047H89.8478C89.0518 21.5047 88.4652 21.2704 88.0921 20.7999C87.7169 20.3314 87.5282 19.579 87.5282 18.5446V10.508H93.8734V7.61834H87.5282V2.22674H87.5262Z" fill="#6B28DA"></path><path d="M103.036 7.08974C98.6647 7.08974 94.8547 10.0415 94.8547 15.9058C94.8547 21.77 98.3372 24.5 102.925 24.5C107.928 24.5 109.956 21.1108 109.956 21.1108L107.709 19.4007C107.709 19.4007 106.322 21.5047 102.922 21.5047C99.7468 21.5047 98.5507 19.6515 98.3704 16.8365H110.544C110.544 10.0167 107.331 7.08974 103.034 7.08974H103.036ZM98.3517 14.3863C98.7103 11.619 100.472 10.1079 102.811 10.1079C105.149 10.1079 106.803 11.6169 107.089 14.3863H98.3517Z" fill="#6B28DA"></path><path d="M118.713 10.8956C119.511 10.425 120.428 10.1908 121.462 10.1908C122.308 10.1908 123.095 10.3607 123.823 10.7028C124.551 11.0427 125.197 11.5195 125.761 12.1289L127.641 10.0229C126.841 9.12945 124.497 7.08972 121.321 7.08972C119.629 7.08972 118.118 7.46077 116.792 8.19872C115.463 8.93874 114.418 9.95446 113.655 11.2479C113.278 11.8885 112.513 13.8059 112.509 15.7358C112.505 17.705 113.27 19.6888 113.655 20.3397C114.418 21.6332 115.465 22.6489 116.792 23.3889C118.118 24.1289 119.629 24.4979 121.321 24.4979C124.497 24.4979 126.841 22.4582 127.641 21.5647L125.761 19.4587C125.197 20.0702 124.551 20.5449 123.823 20.8848C123.093 21.2269 122.308 21.3968 121.462 21.3968C120.428 21.3968 119.511 21.1626 118.713 20.6921C117.913 20.2215 117.287 19.5644 116.827 18.7187C116.595 18.2896 116.137 17.0065 116.141 15.7358C116.145 14.5045 116.601 13.2856 116.827 12.869C117.285 12.0232 117.913 11.3661 118.713 10.8956Z" fill="#6B28DA"></path><path d="M43.5195 7.10637C39.4089 7.10637 35.7751 10.8417 33.9137 13.1613C32.0501 10.8417 28.4163 7.10637 24.3079 7.10637C19.5153 7.10637 15.6183 11.0055 15.6183 15.798C15.6183 20.5906 19.5174 24.4876 24.3079 24.4876C28.435 24.4876 32.0563 20.7626 33.9137 18.441C35.7731 20.7626 39.3923 24.4876 43.5195 24.4876C48.312 24.4876 52.209 20.5885 52.209 15.798C52.209 11.0076 48.3099 7.10637 43.5195 7.10637ZM24.3079 21.3617C21.24 21.3617 18.7442 18.8659 18.7442 15.798C18.7442 12.7301 21.24 10.2344 24.3079 10.2344C27.3758 10.2344 30.4706 13.7168 32.0149 15.8022C30.483 17.8875 27.3053 21.3617 24.3079 21.3617ZM43.5195 21.3617C40.5345 21.3617 37.3484 17.8834 35.8124 15.798C37.3505 13.7127 40.5407 10.2323 43.5195 10.2323C46.4982 10.2323 49.0831 12.7281 49.0831 15.7959C49.0831 18.8638 46.5873 21.3596 43.5195 21.3596V21.3617Z" fill="url(#paint0_linear_8425_1008)"></path><path d="M24.3058 7.10634V10.2323C27.2721 10.2323 30.4685 13.7147 32.0128 15.8001L33.9116 13.1592C32.048 10.8396 28.4143 7.10427 24.3058 7.10427V7.10634Z" fill="url(#paint1_linear_8425_1008)"></path><path d="M43.5191 21.3596C40.5342 21.3596 37.3481 17.8812 35.8121 15.7959L33.9113 18.4389C35.7706 20.7605 39.3899 24.4855 43.5171 24.4855V21.3596H43.5191Z" fill="url(#paint2_linear_8425_1008)"></path><defs><linearGradient id="paint0_linear_8425_1008" x1="15.6162" y1="15.7959" x2="52.209" y2="15.7959" gradientUnits="userSpaceOnUse"><stop stop-color="#6B28DA"></stop><stop offset="0.5" stop-color="#A338F5"></stop><stop offset="1" stop-color="#6B28DA"></stop></linearGradient><linearGradient id="paint1_linear_8425_1008" x1="24.3058" y1="11.4532" x2="33.9137" y2="11.4532" gradientUnits="userSpaceOnUse"><stop stop-color="#6B28DA" stop-opacity="0"></stop><stop offset="1" stop-color="#440E9D"></stop></linearGradient><linearGradient id="paint2_linear_8425_1008" x1="33.9133" y1="20.1407" x2="43.5191" y2="20.1407" gradientUnits="userSpaceOnUse"><stop stop-color="#440E9D"></stop><stop offset="1" stop-color="#6B28DA" stop-opacity="0"></stop></linearGradient></defs></svg>